<svg width="80" height="25" viewBox="0 0 80 25" fill="none" xmlns="http://www.w3.org/2000/svg">
<path d="M3.63425 19V4.45455H5.82886V17.1108H12.4198V19H3.63425ZM14.7529 19V8.09091H16.8764V19H14.7529ZM15.8253 6.40767C15.456 6.40767 15.1388 6.28456 14.8736 6.03835C14.6132 5.7874 14.483 5.48911 14.483 5.14347C14.483 4.79309 14.6132 4.49479 14.8736 4.24858C15.1388 3.99763 15.456 3.87216 15.8253 3.87216C16.1946 3.87216 16.5095 3.99763 16.7699 4.24858C17.0351 4.49479 17.1676 4.79309 17.1676 5.14347C17.1676 5.48911 17.0351 5.7874 16.7699 6.03835C16.5095 6.28456 16.1946 6.40767 15.8253 6.40767ZM24.9251 8.09091V9.79545H18.7603V8.09091H24.9251ZM20.4507 19V6.8267C20.4507 6.14489 20.5998 5.57907 20.8981 5.12926C21.1964 4.67472 21.5918 4.33617 22.0842 4.11364C22.5766 3.88636 23.1116 3.77273 23.6893 3.77273C24.1154 3.77273 24.48 3.80824 24.783 3.87926C25.0861 3.94555 25.311 4.0071 25.4578 4.06392L24.9606 5.78267C24.8612 5.75426 24.7333 5.72112 24.5771 5.68324C24.4208 5.64062 24.2314 5.61932 24.0089 5.61932C23.4928 5.61932 23.1235 5.74716 22.9009 6.00284C22.6831 6.25852 22.5742 6.62784 22.5742 7.1108V19H20.4507ZM31.3882 19.2202C30.3134 19.2202 29.3877 18.9905 28.6112 18.5312C27.8394 18.0672 27.2428 17.4162 26.8214 16.5781C26.4047 15.7353 26.1964 14.7481 26.1964 13.6165C26.1964 12.4991 26.4047 11.5142 26.8214 10.6619C27.2428 9.80966 27.8299 9.14441 28.5828 8.66619C29.3403 8.18797 30.2258 7.94886 31.239 7.94886C31.8545 7.94886 32.4511 8.05066 33.0288 8.25426C33.6064 8.45786 34.1249 8.77746 34.5842 9.21307C35.0435 9.64867 35.4057 10.2145 35.6708 10.9105C35.936 11.6018 36.0686 12.4422 36.0686 13.4318V14.1847H27.3967V12.5938H33.9876C33.9876 12.035 33.874 11.5402 33.6467 11.1094C33.4194 10.6738 33.0998 10.3305 32.6879 10.0795C32.2807 9.8286 31.8025 9.70312 31.2532 9.70312C30.6566 9.70312 30.1358 9.84991 29.6907 10.1435C29.2504 10.4323 28.9095 10.8111 28.668 11.2798C28.4312 11.7438 28.3129 12.2481 28.3129 12.7926V14.0355C28.3129 14.7647 28.4407 15.3849 28.6964 15.8963C28.9568 16.4077 29.319 16.7983 29.783 17.0682C30.2471 17.3333 30.7892 17.4659 31.4095 17.4659C31.8119 17.4659 32.1789 17.4091 32.5103 17.2955C32.8418 17.1771 33.1282 17.0019 33.3697 16.7699C33.6112 16.5379 33.7958 16.2514 33.9237 15.9105L35.9336 16.2727C35.7726 16.8646 35.4838 17.383 35.0671 17.8281C34.6552 18.2685 34.1367 18.6117 33.5117 18.858C32.8915 19.0994 32.1836 19.2202 31.3882 19.2202Z" fill="white"/>
<path d="M59.7611 22.8074L59.752 22.8037L59.7233 22.7891C59.5559 22.7031 59.3898 22.6148 59.225 22.5242C57.2445 21.425 55.3936 20.1337 53.7031 18.6718C50.7092 16.0626 47.5371 12.1907 47.5371 7.42195C47.5371 3.86362 50.7431 1.04174 54.6126 1.04174C55.6883 1.03682 56.7513 1.25848 57.7226 1.69022C58.694 2.12197 59.5486 2.75269 60.223 3.53549C60.8975 2.75253 61.7523 2.12171 62.7239 1.68996C63.6955 1.2582 64.7588 1.03664 65.8347 1.04174C69.7029 1.04174 72.9088 3.86362 72.9088 7.42195C72.9088 12.1919 69.7367 16.0638 66.7429 18.6706C65.0524 20.1325 63.2015 21.4238 61.2209 22.523C61.0562 22.6139 60.8901 22.7027 60.7226 22.7891L60.694 22.8037L60.6849 22.8086L60.681 22.8098C60.5399 22.8796 60.3826 22.9161 60.223 22.9161C60.0633 22.9161 59.9061 22.8796 59.765 22.8098L59.7611 22.8074Z" fill="white"/>
<path d="M71.2566 20.2798L74.8142 13.7867H72.3607V9.58531L68.6804 16.0784H71.2566V20.2798ZM71.7473 22.5714C70.6159 22.5714 69.5527 22.3709 68.5577 21.9699C67.5626 21.5688 66.6971 21.0245 65.961 20.337C65.225 19.6495 64.6423 18.8411 64.2129 17.9117C63.7835 16.9823 63.5688 15.9892 63.5688 14.9325C63.5688 13.8758 63.7835 12.8828 64.2129 11.9534C64.6423 11.024 65.225 10.2155 65.961 9.52802C66.6971 8.84052 67.5626 8.29624 68.5577 7.8952C69.5527 7.49416 70.6159 7.29364 71.7473 7.29364C72.8786 7.29364 73.9418 7.49416 74.9369 7.8952C75.9319 8.29624 76.7975 8.84052 77.5335 9.52802C78.2696 10.2155 78.8523 11.024 79.2817 11.9534C79.711 12.8828 79.9257 13.8758 79.9257 14.9325C79.9257 15.9892 79.711 16.9823 79.2817 17.9117C78.8523 18.8411 78.2696 19.6495 77.5335 20.337C76.7975 21.0245 75.9319 21.5688 74.9369 21.9699C73.9418 22.3709 72.8786 22.5714 71.7473 22.5714Z" fill="#894189"/>
<path d="M71.6727 20.3126L74.9069 14.4098H72.6764V10.5904L69.3307 16.4931H71.6727V20.3126ZM72.1188 22.3959C71.0903 22.3959 70.1237 22.2136 69.2191 21.849C68.3146 21.4844 67.5277 20.9897 66.8586 20.3647C66.1894 19.7397 65.6597 19.0047 65.2693 18.1598C64.879 17.3149 64.6838 16.4121 64.6838 15.4515C64.6838 14.4908 64.879 13.588 65.2693 12.7431C65.6597 11.8982 66.1894 11.1633 66.8586 10.5383C67.5277 9.91327 68.3146 9.41848 69.2191 9.05389C70.1237 8.68931 71.0903 8.50702 72.1188 8.50702C73.1473 8.50702 74.1138 8.68931 75.0184 9.05389C75.923 9.41848 76.7098 9.91327 77.379 10.5383C78.0481 11.1633 78.5779 11.8982 78.9682 12.7431C79.3585 13.588 79.5537 14.4908 79.5537 15.4515C79.5537 16.4121 79.3585 17.3149 78.9682 18.1598C78.5779 19.0047 78.0481 19.7397 77.379 20.3647C76.7098 20.9897 75.923 21.4844 75.0184 21.849C74.1138 22.2136 73.1473 22.3959 72.1188 22.3959Z" fill="white"/>
</svg>
